<?xml version="1.0" standalone="no"?>
<!DOCTYPE svg PUBLIC "-//W3C//DTD SVG 20010904//EN"
 "http://www.w3.org/TR/2001/REC-SVG-20010904/DTD/svg10.dtd">
<svg version="1.0" xmlns="http://www.w3.org/2000/svg"
 width="512.000000pt" height="512.000000pt" viewBox="0 0 512.000000 512.000000"
 preserveAspectRatio="xMidYMid meet">

<g transform="translate(0.000000,512.000000) scale(0.100000,-0.100000)"
fill="#000000" stroke="none">
<path d="M3543 4225 c-84 -42 -125 -123 -108 -211 l7 -38 41 49 c47 55 104 84
165 85 46 0 105 -21 134 -47 15 -14 14 -5 -8 53 -14 38 -31 81 -36 95 -16 46
-116 53 -195 14z"/>
<path d="M2629 4192 c-92 -47 -142 -148 -118 -235 l10 -38 46 51 c60 66 112
93 183 93 68 0 133 -27 179 -77 25 -26 37 -32 43 -23 14 22 8 77 -13 127 -51
118 -207 166 -330 102z"/>
<path d="M2791 3584 c-104 -28 -148 -85 -158 -202 -11 -129 46 -278 143 -376
195 -199 510 -199 708 -2 158 159 195 454 67 545 -60 43 -126 51 -426 50 -211
0 -293 -4 -334 -15z"/>
</g>
</svg>
